<?xml version="1.0" standalone="no"?>
<!DOCTYPE svg PUBLIC "-//W3C//DTD SVG 20010904//EN"
 "http://www.w3.org/TR/2001/REC-SVG-20010904/DTD/svg10.dtd">
<svg version="1.0" xmlns="http://www.w3.org/2000/svg"
 width="500.000000pt" height="200.000000pt" viewBox="0 0 500.000000 200.000000"
 preserveAspectRatio="xMidYMid meet">

<g transform="translate(0.000000,200.000000) scale(0.100000,-0.100000)"
fill="#000000" stroke="none">
<path d="M1153 1802 c-6 -4 -13 -29 -15 -56 l-3 -49 -60 -13 c-33 -6 -77 -19
-98 -28 -58 -24 -127 -77 -127 -98 0 -26 21 -22 66 12 43 32 64 38 64 16 0
-36 40 -46 183 -46 l139 0 30 30 30 30 34 -20 c48 -30 113 -107 140 -165 73
-160 44 -332 -77 -460 -199 -210 -547 -153 -670 110 -56 119 -49 268 16 381
18 31 21 44 13 52 -18 18 -24 15 -47 -24 -67 -113 -80 -265 -35 -389 16 -42
29 -103 33 -153 l6 -83 -50 -28 c-27 -16 -60 -39 -72 -52 -61 -67 -92 -191
-58 -229 25 -28 96 -26 161 4 28 13 55 29 58 35 13 21 22 10 69 -81 60 -119
91 -158 109 -140 11 11 9 19 -10 50 -89 146 -145 301 -161 442 -5 41 -7 77 -5
79 1 2 24 -15 51 -37 26 -22 57 -44 69 -50 13 -7 26 -29 34 -59 24 -89 33 -93
191 -93 158 0 167 4 193 85 14 43 26 57 88 104 l71 53 -7 -63 c-19 -185 -104
-391 -217 -527 -54 -65 -109 -112 -132 -112 -4 0 -30 20 -56 45 -26 25 -53 45
-59 45 -29 0 -20 -26 24 -71 81 -83 128 -77 225 29 67 72 116 144 160 237 19
39 35 72 36 74 1 2 15 -6 32 -18 66 -47 168 -65 207 -37 26 19 23 98 -6 160
-25 52 -97 123 -142 138 l-31 11 7 81 c4 48 17 106 31 142 88 221 -8 476 -219
579 -39 19 -96 38 -126 43 l-55 7 -3 50 c-3 54 -11 68 -29 57z m113 -163 c33
-9 44 -16 42 -28 -5 -23 -283 -30 -291 -7 -4 9 -1 18 4 22 40 24 171 31 245
13z m-464 -922 l17 -72 -35 -31 c-36 -32 -107 -59 -140 -52 -27 5 -20 80 12
136 24 41 111 109 123 96 3 -3 13 -38 23 -77z m363 68 c33 0 81 4 107 9 l48 8
-14 -33 -14 -34 -125 -3 c-131 -3 -137 -1 -152 46 -7 23 -6 23 42 15 26 -4 75
-8 108 -8z m414 1 c67 -35 128 -135 119 -196 -3 -23 -7 -25 -46 -23 -45 2
-129 43 -138 68 -6 14 24 165 33 165 2 0 16 -6 32 -14z"/>
<path d="M1061 1493 c-106 -38 -178 -156 -169 -277 22 -272 394 -345 513 -101
15 30 24 59 20 64 -13 21 -32 10 -50 -28 -38 -86 -121 -140 -213 -141 -132 0
-226 95 -227 230 0 54 5 73 28 113 52 88 160 134 257 108 81 -21 154 -98 166
-173 7 -43 19 -55 38 -39 11 9 12 21 4 53 -35 157 -209 247 -367 191z"/>
<path d="M1830 1090 l0 -270 60 0 60 0 0 270 0 270 -60 0 -60 0 0 -270z"/>
<path d="M3456 1338 c-22 -32 -20 -55 9 -83 31 -32 59 -32 91 1 45 44 14 104
-52 104 -23 0 -38 -7 -48 -22z"/>
<path d="M4171 1338 c-5 -13 -49 -122 -97 -243 l-89 -220 -5 107 c-6 101 -8
110 -34 137 -51 53 -147 60 -197 15 -18 -16 -19 -16 -19 4 0 20 -5 22 -55 22
l-55 0 0 -170 0 -170 55 0 55 0 0 105 c0 99 2 107 25 130 28 29 51 31 83 9 21
-14 22 -23 22 -130 l0 -115 116 3 117 3 20 53 20 53 106 -3 106 -3 19 -52 19
-53 118 0 119 0 -2 168 -3 167 -55 0 -55 0 -5 -147 -5 -147 -100 249 -100 250
-58 0 c-51 0 -59 -3 -66 -22z m103 -230 l25 -68 -59 0 c-33 0 -60 3 -60 7 0
23 54 143 60 136 5 -4 20 -38 34 -75z"/>
<path d="M4516 1344 c-24 -24 -20 -80 6 -98 32 -22 61 -20 86 7 26 27 28 54 6
85 -18 26 -74 30 -98 6z"/>
<path d="M1102 1315 c-76 -64 -33 -175 68 -175 46 0 90 47 90 95 0 47 -13 71
-50 90 -42 22 -74 19 -108 -10z m106 -43 c6 -9 12 -24 12 -34 0 -23 -35 -58
-57 -58 -26 0 -53 31 -53 61 0 52 65 73 98 31z"/>
<path d="M2161 1150 c-52 -24 -51 -24 -51 -5 0 12 -13 15 -55 15 l-55 0 0
-170 0 -170 55 0 55 0 0 105 c0 99 2 107 25 130 29 30 49 31 75 5 18 -18 20
-33 20 -130 l0 -110 55 0 55 0 0 105 c0 99 2 107 25 130 29 30 49 31 75 5 18
-18 20 -33 20 -130 l0 -110 55 0 55 0 0 140 c0 135 -1 142 -24 165 -37 36 -97
49 -143 30 -20 -9 -45 -23 -54 -31 -16 -14 -19 -14 -38 5 -16 16 -79 41 -101
41 -3 0 -25 -9 -49 -20z"/>
<path d="M2707 1155 c-65 -23 -98 -63 -111 -137 -26 -145 139 -263 248 -177
l26 20 0 -20 c0 -19 6 -21 55 -21 l55 0 0 170 0 170 -55 0 c-43 0 -55 -3 -55
-15 0 -14 -3 -14 -27 -2 -45 23 -95 27 -136 12z m137 -106 c33 -26 37 -88 6
-119 -41 -41 -122 -17 -135 39 -17 77 67 129 129 80z"/>
<path d="M3132 1160 c-101 -24 -152 -160 -99 -260 40 -77 132 -109 214 -75 45
19 43 20 43 -10 0 -65 -97 -99 -153 -55 l-26 20 -45 -22 c-25 -12 -46 -25 -46
-29 0 -4 16 -21 35 -38 86 -75 257 -63 318 23 21 29 22 42 25 239 l3 207 -55
0 c-43 0 -56 -3 -56 -15 0 -19 -5 -19 -33 -1 -30 19 -85 26 -125 16z m133
-115 c31 -30 32 -73 4 -109 -45 -57 -139 -19 -139 56 0 39 40 78 80 78 19 0
40 -9 55 -25z"/>
<path d="M3450 990 l0 -170 55 0 55 0 0 170 0 170 -55 0 -55 0 0 -170z"/>
<path d="M1120 623 c-30 -11 -60 -47 -66 -78 -12 -68 48 -124 119 -111 25 5
38 2 47 -9 16 -19 50 -20 50 -1 0 7 -7 19 -15 26 -12 10 -14 24 -9 60 6 42 3
50 -22 79 -29 31 -74 46 -104 34z m76 -69 c16 -24 16 -27 -3 -52 -12 -16 -30
-27 -43 -27 -13 0 -31 11 -43 27 -19 25 -19 28 -3 52 11 18 25 26 46 26 21 0
35 -8 46 -26z"/>
</g>
</svg>
