<?xml version="1.0" standalone="no"?>
<!DOCTYPE svg PUBLIC "-//W3C//DTD SVG 20010904//EN"
 "http://www.w3.org/TR/2001/REC-SVG-20010904/DTD/svg10.dtd">
<svg version="1.0" xmlns="http://www.w3.org/2000/svg"
 width="512.000000pt" height="512.000000pt" viewBox="0 0 512.000000 512.000000"
 preserveAspectRatio="xMidYMid meet">

<g transform="translate(0.000000,512.000000) scale(0.100000,-0.100000)"
fill="#000000" stroke="none">
<path d="M2512 5100 c-12 -12 -23 -22 -23 -23 -1 -1 -4 -72 -8 -157 l-6 -155
-40 -3 c-145 -10 -343 -64 -494 -133 -106 -49 -261 -152 -335 -222 -64 -61
-72 -92 -31 -132 38 -39 64 -32 157 43 83 67 196 142 215 142 5 0 15 -17 22
-37 21 -60 60 -103 115 -129 l51 -24 425 0 425 0 51 24 c55 26 94 69 115 129
7 20 18 37 24 37 5 0 39 -19 75 -41 555 -352 765 -1066 486 -1654 -185 -389
-543 -663 -956 -730 -330 -53 -669 19 -942 201 -484 322 -694 933 -511 1489
29 88 100 237 144 302 51 74 29 143 -46 143 -30 0 -40 -7 -70 -47 -88 -120
-175 -326 -217 -514 -30 -137 -33 -424 -5 -562 25 -125 70 -257 126 -372 l49
-100 6 -175 c3 -96 9 -209 12 -251 l7 -77 -39 -12 c-22 -7 -66 -26 -99 -43
-248 -123 -430 -372 -475 -649 -23 -145 -6 -225 63 -285 52 -46 96 -57 197
-50 183 13 380 96 511 214 l36 33 38 -93 c90 -222 330 -638 384 -667 31 -16
69 -12 91 10 36 36 26 70 -64 204 -220 329 -392 765 -461 1166 -25 145 -45
317 -45 389 l0 64 77 -74 c105 -101 154 -139 258 -202 l88 -53 53 -165 c59
-180 84 -223 157 -262 41 -22 47 -22 457 -22 410 0 416 0 457 22 72 39 97 81
155 261 47 145 56 167 81 181 99 55 216 142 301 223 l99 93 -6 -115 c-23 -387
-137 -809 -317 -1175 -132 -267 -287 -493 -477 -695 -138 -146 -214 -207 -267
-215 -75 -12 -106 6 -246 141 -113 110 -131 124 -162 124 -44 0 -68 -25 -68
-72 0 -31 12 -47 128 -160 162 -159 203 -183 322 -183 125 0 159 21 351 214
167 168 258 279 379 463 84 128 205 359 265 505 l38 93 36 -33 c90 -81 207
-144 338 -182 107 -31 244 -43 297 -25 50 16 105 66 127 115 47 102 0 343
-102 520 -97 170 -287 328 -463 385 l-39 12 7 77 c3 42 9 155 12 251 l6 175
49 100 c56 115 101 247 126 372 27 134 24 423 -5 560 -60 276 -183 508 -376
711 -237 248 -560 408 -886 440 l-75 7 -6 155 c-4 85 -7 156 -8 157 -12 20
-51 43 -71 43 -14 0 -36 -9 -48 -20z m311 -511 c54 -11 122 -29 152 -40 l54
-20 -11 -32 c-6 -18 -20 -42 -31 -54 l-20 -23 -407 0 -407 0 -20 23 c-11 12
-25 37 -31 55 -11 31 -10 33 16 43 56 22 219 60 297 69 110 12 290 3 408 -21z
m-683 -2664 c103 -36 262 -59 420 -59 161 0 266 15 403 55 38 11 70 19 71 17
2 -2 -10 -45 -26 -96 -27 -86 -32 -95 -63 -108 -50 -21 -720 -21 -770 0 -31
13 -36 22 -61 103 -14 48 -28 91 -31 96 -6 11 10 9 57 -8z m-760 -122 c12 -65
38 -174 57 -242 l35 -123 -34 -35 c-118 -123 -282 -201 -460 -219 -55 -5 -72
-4 -94 11 -26 17 -27 19 -20 91 8 105 22 156 70 259 48 101 119 192 200 257
53 41 189 117 212 118 6 0 21 -53 34 -117z m2475 81 c146 -71 264 -193 334
-347 45 -96 59 -149 67 -251 7 -72 6 -74 -20 -91 -22 -15 -39 -16 -94 -11
-174 18 -338 94 -450 209 l-44 44 36 129 c19 71 45 180 57 242 13 61 26 112
31 112 5 0 42 -16 83 -36z"/>
<path d="M2415 4180 c-278 -50 -517 -230 -640 -484 -68 -140 -88 -240 -82
-411 4 -117 9 -154 32 -225 75 -234 227 -413 440 -520 145 -73 230 -93 395
-93 107 0 151 4 215 22 270 73 490 265 592 516 18 44 33 94 33 111 0 37 -36
74 -72 74 -40 0 -65 -29 -91 -102 -37 -103 -84 -174 -172 -263 -200 -201 -487
-263 -756 -165 -204 74 -362 239 -436 453 -19 54 -26 101 -30 188 -7 147 11
236 74 362 37 74 63 108 132 178 95 95 177 146 299 187 67 22 95 26 212 26
126 0 141 -2 223 -31 124 -44 189 -86 289 -184 73 -73 93 -101 131 -180 29
-59 53 -129 66 -189 21 -102 41 -130 88 -130 35 0 73 42 73 82 0 62 -41 203
-85 294 -112 231 -305 393 -557 464 -83 24 -289 35 -373 20z"/>
<path d="M2452 3622 c-68 -25 -137 -84 -175 -151 -26 -45 -31 -68 -35 -135 -5
-104 20 -175 84 -241 131 -135 337 -135 468 0 64 66 89 137 84 240 -5 90 -26
140 -84 205 -79 87 -228 122 -342 82z"/>
<path d="M2420 1375 c-75 -24 -140 -82 -180 -159 -31 -62 -35 -77 -34 -145 1
-98 28 -163 95 -226 70 -66 127 -89 219 -89 56 -1 87 5 120 20 l45 21 62 -59
c56 -53 66 -59 99 -56 26 2 43 11 57 30 28 37 17 69 -48 137 l-54 56 19 55
c88 254 -144 495 -400 415z m177 -155 c67 -30 103 -107 88 -187 -9 -47 -67
-107 -121 -123 -117 -35 -239 86 -205 202 32 107 136 155 238 108z"/>
</g>
</svg>
